<svg xmlns="http://www.w3.org/2000/svg">
    <symbol id="icon-youtube" viewBox="0 0 24 24">
        <path d="M23.5 6.2c-.3-1.1-1.1-1.9-2.2-2.1C19.3 3.8 12 3.8 12 3.8s-7.3 0-9.3.3c-1.1.2-1.9 1-2.2 2.1-.3 2-.3 6-.3 6s0 4 .3 6c.3 1.1 1.1 1.9 2.2 2.1 2 .3 9.3.3 9.3.3s7.3 0 9.3-.3c1.1-.2 1.9-1 2.2-2.1.3-2 .3-6 .3-6s0-4-.3-6zM9.5 15.5V8.5l6.5 3.5-6.5 3.5z" fill="currentColor"/>
    </symbol>
    <symbol id="icon-instagram" viewBox="0 0 24 24">
        <path d="M12 2.2c3.2 0 3.6 0 4.9.1 1.2.1 1.8.3 2.2.5.6.2 1 .5 1.4.9.4.4.7.8.9 1.4.2.4.4 1 .5 2.2.1 1.3.1 1.7.1 4.9s0 3.6-.1 4.9c-.1 1.2-.3 1.8-.5 2.2-.2.6-.5 1-.9 1.4-.4.4-.8.7-1.4.9-.4.2-1 .4-2.2.5-1.3.1-1.7.1-4.9.1s-3.6 0-4.9-.1c-1.2-.1-1.8-.3-2.2-.5-.6-.2-1-.5-1.4-.9-.4-.4-.7-.8-.9-1.4-.2-.4-.4-1-.5-2.2-.1-1.3-.1-1.7-.1-4.9s0-3.6.1-4.9c.1-1.2.3-1.8.5-2.2.2-.6.5-1 .9-1.4.4-.4.8-.7 1.4-.9.4-.2 1-.4 2.2-.5 1.3-.1 1.7-.1 4.9-.1m0-2.2c-3.3 0-3.7 0-5 .1-1.3.1-2.1.3-2.9.6-.8.3-1.5.7-2.1 1.3-.6.6-1 1.3-1.3 2.1-.3.8-.5 1.6-.6 2.9-.1 1.3-.1 1.7-.1 5s0 3.7.1 5c.1 1.3.3 2.1.6 2.9.3.8.7 1.5 1.3 2.1.6.6 1.3 1 2.1 1.3.8.3 1.6.5 2.9.6 1.3.1 1.7.1 5 .1s3.7 0 5-.1c1.3-.1 2.1-.3 2.9-.6.8-.3 1.5-.7 2.1-1.3.6-.6 1-1.3 1.3-2.1.3-.8.5-1.6.6-2.9.1-1.3.1-1.7.1-5s0-3.7-.1-5c-.1-1.3-.3-2.1-.6-2.9-.3-.8-.7-1.5-1.3-2.1-.6-.6-1.3-1-2.1-1.3-.8-.3-1.6-.5-2.9-.6-1.3-.1-1.7-.1-5-.1z" fill="currentColor"/>
        <path d="M12 5.8c-3.4 0-6.2 2.8-6.2 6.2s2.8 6.2 6.2 6.2 6.2-2.8 6.2-6.2-2.8-6.2-6.2-6.2zm0 10.2c-2.2 0-4-1.8-4-4s1.8-4 4-4 4 1.8 4 4-1.8 4-4 4z" fill="currentColor"/>
        <circle cx="18.4" cy="5.6" r="1.4" fill="currentColor"/>
    </symbol>
    <symbol id="icon-facebook" viewBox="0 0 24 24">
        <path d="M12 2C6.5 2 2 6.5 2 12c0 5 3.7 9.1 8.4 9.9v-7H7.9V12h2.5V9.8c0-2.5 1.5-3.9 3.8-3.9 1.1 0 2.2.2 2.2.2v2.5h-1.3c-1.2 0-1.6.8-1.6 1.5V12h2.8l-.4 2.9h-2.4v7C18.3 21.1 22 17 22 12c0-5.5-4.5-10-10-10z" fill="currentColor"/>
    </symbol>
</svg>