<svg
  xmlns="http://www.w3.org/2000/svg"
  width="32"
  height="32"
  viewBox="0 0 32 32"
  fill="none"
>
  <path
    d="M14.937 4.453c6.577-0.614 12.405 4.224 13.012 10.802s-4.237 12.4-10.815 13c-6.569 0.6-12.381-4.236-12.987-10.804s4.223-12.386 10.791-12.998zM17.322 26.99c5.872-0.705 10.059-6.038 9.35-11.909s-6.044-10.055-11.915-9.343c-5.865 0.712-10.045 6.041-9.337 11.907s6.035 10.049 11.902 9.345z"
    fill="#1a1a1a"
  />
  <path
    d="M20.726 10.134l1.376-0.009c0.027 3.971 0.029 7.942 0.006 11.912l-1.423 0.018-0.002-7.461-0.007-2.043c-0.795 1.508-1.697 2.958-2.556 4.429-0.545 0.933-1.051 2.003-1.725 2.841-0.161 0.059-0.335 0.063-0.503 0.025-0.055-0.013-0.169-0.056-0.211-0.089-0.364-0.29-3.783-6.297-4.329-7.208 0.14 1.080 0.052 2.259 0.052 3.349l-0.004 6.127-1.455 0.005c0.045-3.964-0.026-7.931 0.012-11.896l1.584 0.008c0.704 1.259 1.46 2.492 2.19 3.737 0.776 1.323 1.532 2.661 2.357 3.954 0.839-1.532 1.777-3.017 2.679-4.514 0.639-1.060 1.243-2.176 1.959-3.186z"
    fill="#1a1a1a"
  />
</svg>
